<svg xmlns="http://www.w3.org/2000/svg" xmlns:xlink="http://www.w3.org/1999/xlink" width="21" height="20" viewBox="0 0 21 20"><defs><path id="papma" d="M685.37 473.72c.73.15 1.28.8 1.28 1.57v10.22c0 .88-.72 1.6-1.6 1.6h-3.83v1.27h1.28v.64H671v-.64h1.28v-1.27h-3.84a1.6 1.6 0 0 1-1.6-1.6v-10.22c0-.88.72-1.6 1.6-1.6h4.8v-4.47h9.07l3.06 3.06zm-3.2-3.73v2.42h2.43zm-8.3 13.28h10.86v-10.22h-3.2v-3.2h-7.66zm-5.43-8.94a.96.96 0 0 0-.96.96v9.26h18.53v-9.26a.96.96 0 0 0-.64-.9v9.52h-12.14v-9.58zm4.47 14.06h7.67v-1.28h-7.67zm12.14-1.92c.53 0 .96-.43.96-.96v-.32h-18.53v.32c0 .53.43.96.96.96z"/><path id="papmb" d="M672.26 477.2a1.9 1.9 0 1 1-3.81 0 1.9 1.9 0 0 1 3.81 0m-1.63-.54a.27.27 0 0 0-.27-.27.27.27 0 0 0-.28.27c0 .15.13.27.28.27.15 0 .27-.12.27-.27m-1.63.54c0 .36.14.68.36.93a1.09 1.09 0 0 1 2 0 1.35 1.35 0 0 0-.84-2.27.82.82 0 1 1-.33 0c-.67.08-1.2.65-1.2 1.34m.83 1.26a1.37 1.37 0 0 0 1.07 0 .55.55 0 0 0-1.07 0"/><path id="papmc" d="M668.45 481.68a1.9 1.9 0 1 1 3.82 0 1.9 1.9 0 0 1-3.82 0m1.38 1.25a1.36 1.36 0 0 0 1.07 0 .55.55 0 0 0-1.07 0m.8-1.8a.27.27 0 0 0-.54 0c0 .15.12.27.27.27.15 0 .28-.12.28-.27m-.44-.8a1.36 1.36 0 0 0-.83 2.27 1.09 1.09 0 0 1 1.99 0 1.35 1.35 0 0 0-.83-2.27.82.82 0 1 1-.33 0"/><path id="papmd" d="M678.34 471.75v-.62h-3.2v3.2h3.2v-1.8l1.15-.82-.37-.52zm-.64 1.94h-1.91v-1.92h1.91v.43l-.6.43-.45-.44-.45.45.83.83.67-.48z"/><path id="papme" d="M678.34 475.58v-.61h-3.2v3.2h3.2v-1.8l1.15-.82-.37-.52zm-.64 1.94h-1.91v-1.91h1.91v.43l-.6.43-.45-.45-.45.45.83.83.67-.48z"/><path id="papmf" d="M679.12 478.86l-.78.55v-.61h-3.2v3.2h3.2v-1.8l1.15-.82zm-1.42 2.5h-1.91v-1.92h1.91v.43l-.6.43-.45-.45-.45.45.83.83.67-.48z"/><path id="papmg" d="M679.62 474.33h3.83v-.64h-3.83z"/><path id="papmh" d="M679.62 478.16h3.83v-.64h-3.83z"/><path id="papmi" d="M679.62 482h3.83v-.64h-3.83z"/><path id="papmj" d="M679.62 480.72h3.83v-.64h-3.83z"/><path id="papmk" d="M679.62 476.88h3.83v-.63h-3.83z"/><path id="papml" d="M679.62 473.05h1.28v-.64h-1.28z"/></defs><g><g transform="translate(-666 -469)"><g><g/></g><g><use fill="#fff" xlink:href="#papma"/></g><g><use fill="#fff" xlink:href="#papmb"/></g><g><use fill="#fff" xlink:href="#papmc"/></g><g><use fill="#cca343" xlink:href="#papmd"/></g><g><use fill="#cca343" xlink:href="#papme"/></g><g><use fill="#cca343" xlink:href="#papmf"/></g><g><use fill="#fff" xlink:href="#papmg"/></g><g><use fill="#fff" xlink:href="#papmh"/></g><g><use fill="#fff" xlink:href="#papmi"/></g><g><use fill="#fff" xlink:href="#papmj"/></g><g><use fill="#fff" xlink:href="#papmk"/></g><g><use fill="#fff" xlink:href="#papml"/></g></g></g></svg>