<svg xmlns="http://www.w3.org/2000/svg" xmlns:xlink="http://www.w3.org/1999/xlink" width="22" height="20" viewBox="0 0 22 20"><defs><path id="zodra" d="M669.4 532.18a.43.43 0 0 1-.3-.13l-1.32-1.32c-2.45-2.45-1.48-5.68.45-7.64 2.07-2.1 5.43-2.97 7.87-.6l.9.9a.43.43 0 1 1-.61.61l-.9-.89c-2.13-2.07-4.93-1.15-6.64.58-1.65 1.67-2.5 4.4-.46 6.43l1.32 1.32a.43.43 0 0 1-.3.74"/><path id="zodrb" d="M684.1 535.4c-.4 0-.84-.17-1.24-.6l-2.4-2.47a.43.43 0 0 1 .61-.6l2.4 2.48c.53.54.94.3 1.13.1.34-.32.48-.91.1-1.3l-5.12-5.38a.43.43 0 1 1 .62-.6l5.13 5.38c.74.78.5 1.92-.13 2.53a1.6 1.6 0 0 1-1.1.46"/><path id="zodrc" d="M682.16 537.2c-.41 0-.82-.14-1.16-.48l-2.64-2.72a.43.43 0 1 1 .62-.6l2.64 2.72c.4.4.99.2 1.28-.09.17-.17.52-.63-.04-1.22l-2.58-2.66a.43.43 0 1 1 .62-.6l2.58 2.66c.84.87.6 1.87.02 2.44-.36.34-.85.56-1.34.56"/><path id="zodrd" d="M680.05 538.83c-.41 0-.83-.15-1.17-.5l-1.32-1.32a.43.43 0 1 1 .62-.61l1.31 1.33c.4.4.98.21 1.26-.06.17-.16.5-.6-.06-1.2a.43.43 0 1 1 .62-.6c.84.89.62 1.85.04 2.42a1.9 1.9 0 0 1-1.3.54"/><path id="zodre" d="M684.9 532.8a.43.43 0 0 1-.3-.74l1.33-1.32c2.14-2.13.96-4.97-.7-6.75a8.06 8.06 0 0 0-1.91-1.54c-.6-.33-3.42-1.3-5.28.5l-3.98 3.97c-.18.18-.12.24-.04.32.38.38 1.68.57 2.45-.18l1-1c.87-.78 1.85-.49 2.7-.23.99.3 1.92.58 3-.28a.43.43 0 1 1 .54.68c-1.44 1.13-2.74.74-3.78.43-.88-.27-1.4-.4-1.87.03l-.99.98c-1.12 1.11-2.97.87-3.66.17-.45-.45-.43-1.06.05-1.53l3.98-3.97c2.06-2 5.13-1.3 6.3-.64.74.41 1.47 1 2.13 1.7 2.06 2.23 3.08 5.55.67 7.95l-1.33 1.33a.43.43 0 0 1-.3.12"/><path id="zodrf" d="M676.15 540.69c-.45 0-.86-.17-1.18-.49l-.14-.14c-.33-.33-.5-.77-.48-1.21-.5.08-1.04-.08-1.43-.47l-.14-.14a1.64 1.64 0 0 1-.48-1.2c-.52.1-1.08-.06-1.48-.46l-.14-.14a1.64 1.64 0 0 1-.48-1.3c-.49.05-1-.1-1.37-.48l-.14-.14a1.66 1.66 0 0 1 0-2.34l1.83-1.83c.64-.65 1.7-.65 2.34 0l.14.14c.24.24.39.53.45.83l.14-.14c.64-.64 1.7-.64 2.34 0l.14.15a1.65 1.65 0 0 1 .19 2.12c.31.06.62.2.86.45l.14.14a1.65 1.65 0 0 1 .27 2c.33.06.63.21.87.45l.14.15c.65.64.65 1.7 0 2.34l-1.22 1.22c-.31.32-.73.49-1.17.49m1.08-3.82a.8.8 0 0 0-.56.23l-1.23 1.23a.8.8 0 0 0 0 1.12l.15.15c.3.3.82.3 1.12 0l1.23-1.23a.8.8 0 0 0 0-1.12l-.14-.15a.8.8 0 0 0-.57-.23m-1.28-2.59c-.2 0-.4.08-.56.23l-2 2a.79.79 0 0 0-.23.56c0 .21.08.41.23.56l.14.14a.8.8 0 0 0 1.13 0l2-2a.8.8 0 0 0 .22-.55.79.79 0 0 0-.23-.57l-.14-.14a.8.8 0 0 0-.56-.23m-1.2-2.72a.8.8 0 0 0-.55.23l-2.91 2.91a.78.78 0 0 0-.23.56c0 .22.08.42.23.56l.14.15c.3.3.82.3 1.12 0l2.91-2.91a.79.79 0 0 0 .23-.56.79.79 0 0 0-.23-.57l-.14-.14a.8.8 0 0 0-.56-.23m-3.07-.83a.8.8 0 0 0-.56.23l-1.83 1.82a.8.8 0 0 0 0 1.13l.14.14c.3.3.83.3 1.13 0l1.82-1.83a.8.8 0 0 0 0-1.12l-.14-.14a.8.8 0 0 0-.56-.23"/></defs><g><g transform="translate(-666 -521)"><g><g/></g><g><use fill="#cca343" xlink:href="#zodra"/></g><g><use fill="#cca343" xlink:href="#zodrb"/></g><g><use fill="#cca343" xlink:href="#zodrc"/></g><g><use fill="#cca343" xlink:href="#zodrd"/></g><g><use fill="#fff" xlink:href="#zodre"/></g><g><use fill="#fff" xlink:href="#zodrf"/></g></g></g></svg>