<svg xmlns="http://www.w3.org/2000/svg" xmlns:xlink="http://www.w3.org/1999/xlink" width="20" height="18" viewBox="0 0 20 18"><defs><path id="ovnba" d="M684.69 589.78h-15.73c-.56 0-1.02-.46-1.02-1.02v-7a.39.39 0 0 1 .78 0v7c0 .13.11.24.24.24h15.73c.13 0 .24-.11.24-.24v-7.1a.39.39 0 1 1 .78 0v7.1c0 .56-.46 1.02-1.02 1.02"/><path id="ovnbb" d="M679.68 575.94a.39.39 0 0 1-.4-.39v-1.8c0-.36-.29-.65-.64-.65h-3.63a.65.65 0 0 0-.65.64v1.81a.39.39 0 0 1-.78 0v-1.8c0-.8.64-1.43 1.43-1.43h3.63c.79 0 1.42.64 1.42 1.42v1.81c0 .22-.17.39-.38.39"/><path id="ovnbc" d="M675.08 583.45h-.02a20.14 20.14 0 0 1-7.82-1.86.39.39 0 0 1-.22-.35l.01-5.02c0-.56.46-1.02 1.02-1.02h17.55c.56 0 1.02.46 1.02 1.02l.01 4.89c0 .14-.08.27-.2.34a19 19 0 0 1-7.95 2c-.2.02-.4-.15-.4-.37a.39.39 0 0 1 .36-.4c2.84-.15 5.34-.75 7.42-1.8l-.02-4.66a.25.25 0 0 0-.24-.25h-17.55a.24.24 0 0 0-.25.25V581c2.1.97 4.55 1.54 7.3 1.68a.39.39 0 0 1-.02.77"/><path id="ovnbd" d="M675.69 584.8a.74.74 0 0 1-.74-.74v-1.55c0-.4.33-.74.74-.74h2.27c.4 0 .74.33.74.74v1.55c0 .41-.34.74-.74.74zm.04-2.26v1.52l2.23-.03-.04-1.52z"/></defs><g><g transform="translate(-667 -572)"><g><g/></g><g><use fill="#fff" xlink:href="#ovnba"/></g><g><use fill="#fff" xlink:href="#ovnbb"/></g><g><use fill="#fff" xlink:href="#ovnbc"/></g><g><use fill="#cca343" xlink:href="#ovnbd"/></g></g></g></svg>