<svg xmlns="http://www.w3.org/2000/svg" xmlns:xlink="http://www.w3.org/1999/xlink" width="21" height="21" viewBox="0 0 21 21"><defs><path id="zt9ra" d="M684.28 642.08a.44.44 0 0 1-.31-.13l-4.87-4.86a.44.44 0 0 1 .01-.63l1.93-1.87a.44.44 0 0 1 .61 0l4.84 4.85a.44.44 0 0 1 0 .62l-1.9 1.9a.44.44 0 0 1-.3.12zm-4.24-5.3l4.24 4.24 1.27-1.27-4.21-4.22z"/><path id="zt9rb" d="M674.62 638.6a8.51 8.51 0 0 1 0-17.01 8.51 8.51 0 0 1 0 17m0-16.12a7.63 7.63 0 1 0 .02 15.26 7.63 7.63 0 0 0-.02-15.26"/><path id="zt9rc" d="M681.08 630.6a.44.44 0 0 1-.44-.44 6.1 6.1 0 0 0-6.1-6.1.44.44 0 1 1 0-.88 6.99 6.99 0 0 1 6.98 6.98c0 .24-.2.44-.44.44"/><path id="zt9rd" d="M674.41 628.33a.44.44 0 0 1-.44-.44v-1.28a.44.44 0 0 1 .88 0v1.28c0 .25-.2.44-.44.44"/><path id="zt9re" d="M674.41 635.19a.44.44 0 0 1-.44-.44v-1.28a.44.44 0 0 1 .88 0v1.28c0 .24-.2.44-.44.44"/><path id="zt9rf" d="M674.67 633.7c-.16 0-.32 0-.48-.02a8.07 8.07 0 0 1-1.63-.42l-.1-.04a.44.44 0 0 1 .27-.84l.1.04c.54.18 1 .33 1.46.38.94.11 1.49-.17 1.7-.48.12-.18.13-.4.03-.58-.2-.39-.8-.62-1.58-.62h-.03c-1.15 0-2.03-.4-2.4-1.08a1.41 1.41 0 0 1 .1-1.48c.46-.68 1.41-1 2.55-.88.55.06 1.08.24 1.65.43l.1.03a.44.44 0 1 1-.29.84l-.1-.04c-.53-.18-1-.33-1.46-.38-.95-.11-1.51.18-1.72.5a.54.54 0 0 0-.04.57c.2.38.8.61 1.61.61h.03c1.13 0 2 .4 2.36 1.09.26.48.22 1.03-.09 1.49-.39.57-1.13.89-2.04.89"/></defs><g><g transform="translate(-666 -621)"><g><use fill="#fff" xlink:href="#zt9ra"/></g><g><use fill="#fff" xlink:href="#zt9rb"/></g><g><use fill="#fff" xlink:href="#zt9rc"/></g><g><use fill="#cca343" xlink:href="#zt9rd"/></g><g><use fill="#cca343" xlink:href="#zt9re"/></g><g><use fill="#cca343" xlink:href="#zt9rf"/></g></g></g></svg>