<svg id="Layer_1" data-name="Layer 1" xmlns="http://www.w3.org/2000/svg" viewBox="0 0 91.92 44.36"><defs><style>.cls-1{fill:#fff;}.cls-2{fill:#cca343;}.cls-3{fill:#ec1c24;}.cls-4{fill:#2e3191;}</style></defs><title>logo</title><g id="_Group_" data-name="&lt;Group&gt;"><g id="_Group_2" data-name="&lt;Group&gt;"><g id="_Group_3" data-name="&lt;Group&gt;"><g id="_Group_4" data-name="&lt;Group&gt;"><g id="_Group_5" data-name="&lt;Group&gt;"><path id="_Compound_Path_" data-name="&lt;Compound Path&gt;" class="cls-1" d="M22.18.85A21.33,21.33,0,1,0,43.51,22.18,21.36,21.36,0,0,0,22.18.85Z"/></g></g><g id="_Group_6" data-name="&lt;Group&gt;"><g id="_Group_7" data-name="&lt;Group&gt;"><path id="_Compound_Path_2" data-name="&lt;Compound Path&gt;" class="cls-2" d="M22.18,44.36A22.18,22.18,0,1,1,44.36,22.18,22.21,22.21,0,0,1,22.18,44.36Zm0-43.51A21.33,21.33,0,1,0,43.51,22.18,21.36,21.36,0,0,0,22.18.85Z"/></g></g></g><g id="_Group_8" data-name="&lt;Group&gt;"><path id="_Path_" data-name="&lt;Path&gt;" class="cls-3" d="M38.63,10.49v11h3.72A20.07,20.07,0,0,0,38.63,10.49Z"/><path id="_Path_2" data-name="&lt;Path&gt;" class="cls-3" d="M36.25,21.52V7.72a20,20,0,0,0-3.72-2.87V16.91A13.16,13.16,0,0,1,35,21.52Z"/><path id="_Path_3" data-name="&lt;Path&gt;" class="cls-3" d="M30.15,3.64a18.86,18.86,0,0,0-3.73-1.19V12.8a13,13,0,0,1,3.73,1.9Z"/><path id="_Path_4" data-name="&lt;Path&gt;" class="cls-3" d="M24.05,12.27V2.09C23.43,2,22.81,2,22.18,2s-1.25,0-1.86.08V12.31a13.57,13.57,0,0,1,2-.15A13.73,13.73,0,0,1,24.05,12.27Z"/><path id="_Path_5" data-name="&lt;Path&gt;" class="cls-3" d="M18,2.45a19.52,19.52,0,0,0-3.73,1.18V14.94a13.1,13.1,0,0,1,3.73-2Z"/><path id="_Path_6" data-name="&lt;Path&gt;" class="cls-3" d="M11.84,4.84A20.8,20.8,0,0,0,8.11,7.71V21.52H9.66a13.24,13.24,0,0,1,2.18-4.2Z"/><path id="_Path_7" data-name="&lt;Path&gt;" class="cls-3" d="M5.74,10.48A20,20,0,0,0,2,21.52H5.74Z"/></g><path id="_Path_8" data-name="&lt;Path&gt;" class="cls-4" d="M35.62,25.43a13.27,13.27,0,0,1-26.54,0,13.79,13.79,0,0,1,.25-2.59H2a20.18,20.18,0,0,0,40.34,0h-7A13.79,13.79,0,0,1,35.62,25.43Z"/><g id="_Group_9" data-name="&lt;Group&gt;"><g id="_Group_10" data-name="&lt;Group&gt;"><g id="_Group_11" data-name="&lt;Group&gt;"><path id="_Compound_Path_3" data-name="&lt;Compound Path&gt;" class="cls-2" d="M22.3,37.56A12.18,12.18,0,1,1,34.48,25.38,12.19,12.19,0,0,1,22.3,37.56Zm0-24.05A11.87,11.87,0,1,0,34.17,25.38,11.88,11.88,0,0,0,22.3,13.51Z"/></g></g><g id="_Group_12" data-name="&lt;Group&gt;"><path id="_Path_9" data-name="&lt;Path&gt;" class="cls-2" d="M33.52,25.43A11.19,11.19,0,1,1,22.33,14.24,11.18,11.18,0,0,1,33.52,25.43Z"/><g id="_Group_13" data-name="&lt;Group&gt;"><path id="_Compound_Path_4" data-name="&lt;Compound Path&gt;" class="cls-4" d="M30.9,22.87A11.64,11.64,0,0,0,29,21.29v-.78l-1.1.78v5.15H26.8l.4,1.13h.69v5.85l1.1-.78V27.57h1.32a1.87,1.87,0,0,0,1.93-1.91A4.25,4.25,0,0,0,30.9,22.87Zm-.59,3.57H29V22.77a13.76,13.76,0,0,1,1.24,1,3,3,0,0,1,1,2C31.25,26.17,30.88,26.44,30.31,26.44Z"/><path id="_Compound_Path_5" data-name="&lt;Compound Path&gt;" class="cls-4" d="M19,21.32V16.25L17.92,17v4.65c0,.78-.43,1.29-1.1,1.29H15.48V20.36h-.09l-3,2.69v1.05h2v7.2l1.11-.78V24.09H17a.8.8,0,0,1,.89.83V34.6l1.1-.78V25c0-1-.52-1.5-1.05-1.56C19.07,23.09,19,22,19,21.32ZM13.28,23l1.09-1v1Z"/><path id="_Path_10" data-name="&lt;Path&gt;" class="cls-4" d="M21.81,19.33V29.76a.48.48,0,0,1-.5.5.44.44,0,0,1-.46-.5V22.47l-1.09.78v6.59h0a.69.69,0,0,1-.66.42H17.81a.56.56,0,0,1-.59-.6V25.18l-1,.7v4a1.51,1.51,0,0,0,1.7,1.43h1A1.4,1.4,0,0,0,20,30.73a1.53,1.53,0,0,0,1.32.59,1.6,1.6,0,0,0,1.56-1.67V18.56Z"/><path id="_Path_11" data-name="&lt;Path&gt;" class="cls-4" d="M22.88,32.69c0,.24.14.38.41.38a4.25,4.25,0,0,0,1.65-.86,5.71,5.71,0,0,0,1-.89,1,1,0,0,0,.19-.69,2.36,2.36,0,0,0-.24-.85L23.5,23.3a2.6,2.6,0,0,1-.16-.86,2.28,2.28,0,0,1,.5-1.39,7.71,7.71,0,0,1,1.73-1.58,5.7,5.7,0,0,1,2.66-1.26.77.77,0,0,1,.71.8v.73l-1.1.76v-.93c0-.1,0-.18-.12-.18a6,6,0,0,0-1.64,1,5,5,0,0,0-1.23,1.2,1.62,1.62,0,0,0-.22.83,3.08,3.08,0,0,0,.27.92L27,29.06a5.32,5.32,0,0,1,.45,1.53,1.77,1.77,0,0,1-.49,1.3A7.63,7.63,0,0,1,25.65,33a4.81,4.81,0,0,1-2.57,1.09,1.24,1.24,0,0,1-1.25-1.28,1.89,1.89,0,0,1,1-1.51l1.43-1V31.4l-1.14.84a.54.54,0,0,0-.24.45"/></g></g></g></g><g id="_Group_14" data-name="&lt;Group&gt;"><g id="_Group_15" data-name="&lt;Group&gt;"><g id="_Group_16" data-name="&lt;Group&gt;"><path id="_Compound_Path_6" data-name="&lt;Compound Path&gt;" class="cls-4" d="M58.48,19.31a3.09,3.09,0,0,1-1.42.35c-1,0-1.58-.47-2.21-1.62l-1.56-2.83h-1.2v4.32H49.78V9h2.31v4.37h1.34L55.68,9H58l-2.73,5.15,1.82,3.3c.23.42.43.62.83.62a1.44,1.44,0,0,0,.69-.2Z"/></g><g id="_Group_17" data-name="&lt;Group&gt;"><path id="_Compound_Path_7" data-name="&lt;Compound Path&gt;" class="cls-4" d="M73.06,9,69.89,19.53H67.77l-1.58-5.36-1.67,5.36H62.45L59.11,9h2.32l2,6.6a5.48,5.48,0,0,1,.24,1.22h0a6.69,6.69,0,0,1,.22-1.18l1.4-4.41L64.63,9h2.19l1.88,6.57a5.26,5.26,0,0,1,.2,1.25h0a6.72,6.72,0,0,1,.2-1.27L70.86,9Z"/></g><g id="_Group_18" data-name="&lt;Group&gt;"><path id="_Compound_Path_8" data-name="&lt;Compound Path&gt;" class="cls-4" d="M77.71,19.69A8.85,8.85,0,0,1,74.39,19l.1-1.92a7.08,7.08,0,0,0,3.12.87c1.06,0,1.86-.39,1.86-1.24,0-2.12-5.18-.87-5.18-4.75,0-1.94,1.42-3.2,4-3.2A9.68,9.68,0,0,1,81,9.23L80.89,11a7.07,7.07,0,0,0-2.45-.51c-1.25,0-1.92.46-1.92,1.21,0,2,5.21.85,5.21,4.76C81.73,18.71,80,19.69,77.71,19.69Z"/></g><g id="_Group_19" data-name="&lt;Group&gt;"><path id="_Compound_Path_9" data-name="&lt;Compound Path&gt;" class="cls-4" d="M90.41,15.54a5.77,5.77,0,0,1-2.93.62H86.1v3.37H83.78V10.6h-1V9h4.32a7,7,0,0,1,3.35.58,3,3,0,0,1,1.49,2.94A3.22,3.22,0,0,1,90.41,15.54ZM88.83,11a2.84,2.84,0,0,0-1.7-.37h-1v4h1.06c1.52,0,2.37-.41,2.37-2A1.77,1.77,0,0,0,88.83,11Z"/></g></g><g id="_Group_20" data-name="&lt;Group&gt;"><g id="_Group_21" data-name="&lt;Group&gt;"><path id="_Compound_Path_10" data-name="&lt;Compound Path&gt;" class="cls-4" d="M56.83,34.29l-.15,1.65h-6.9V25.38h6.67V27H52.09v2.75h3.54v1.62H52.09v2.9Z"/></g><g id="_Group_22" data-name="&lt;Group&gt;"><path id="_Compound_Path_11" data-name="&lt;Compound Path&gt;" class="cls-4" d="M65.54,32a5.71,5.71,0,0,1-2.94.62H61.22v3.37H58.9V27h-1V25.38H62.2a7.12,7.12,0,0,1,3.36.58A3,3,0,0,1,67,28.9,3.21,3.21,0,0,1,65.54,32ZM64,27.38a2.85,2.85,0,0,0-1.7-.36h-1v4h1.07c1.51,0,2.37-.42,2.37-2A1.75,1.75,0,0,0,64,27.38Z"/></g><g id="_Group_23" data-name="&lt;Group&gt;"><path id="_Compound_Path_12" data-name="&lt;Compound Path&gt;" class="cls-4" d="M75.43,27H71.08v2.75h3.55v1.62H71.08v4.55H68.76V25.38h6.67Z"/></g></g><g id="_Group_24" data-name="&lt;Group&gt;"><rect id="_Path_12" data-name="&lt;Path&gt;" class="cls-3" x="49.78" y="21.82" width="42.14" height="0.71"/></g></g></g></svg>